<svg width="55" height="55" viewBox="0 0 55 55" fill="none" xmlns="http://www.w3.org/2000/svg">
<g clip-path="url(#clip0_33_267)">
<path d="M20.0364 51.7244L16.5003 45.8325C24.0628 41.2927 24.0628 31.2254 24.0628 25.2075H30.9378C30.9378 31.6906 30.9378 45.184 20.0364 51.7244ZM39.0045 42.929L32.4595 40.8252C31.3656 44.3977 29.5032 47.6876 27.003 50.464L32.0562 55.1252C35.2351 51.616 37.6067 47.453 39.0045 42.929ZM41.2503 25.2075C41.2502 22.4821 40.4403 19.8183 38.9232 17.5542C37.4062 15.29 35.2505 13.5278 32.73 12.4913C30.2094 11.4547 27.4377 11.1906 24.7667 11.7324C22.0957 12.2742 19.646 13.5976 17.7287 15.5344L22.6168 20.3698C23.2538 19.7217 24.014 19.2076 24.8527 18.8577C25.6914 18.5078 26.5916 18.3293 27.5003 18.3325C29.3237 18.3325 31.0724 19.0568 32.3617 20.3462C33.651 21.6355 34.3753 23.3842 34.3753 25.2075C34.4105 27.8694 34.2965 30.5311 34.0339 33.1802L40.8676 33.9273C41.1598 31.0303 41.2876 28.119 41.2503 25.2075ZM14.981 42.0238C20.6253 38.6344 20.6253 31.5027 20.6253 25.2075C20.6255 24.7411 20.6723 24.2759 20.7651 23.8188L14.0299 22.4438C13.8439 23.3533 13.7502 24.2792 13.7503 25.2075C13.7503 30.9688 13.5899 34.8325 11.4449 36.1296C10.7434 36.4987 9.95949 36.6832 9.16699 36.6658V43.5408C11.2047 43.5554 13.2102 43.0321 14.981 42.0238ZM52.7087 25.2075C52.7188 21.4009 51.8564 17.6427 50.1878 14.2213L44.0003 17.2256C45.2136 19.7111 45.8407 22.4417 45.8337 25.2075C46.1283 33.9315 44.4789 42.6118 41.0051 50.6198L47.2087 53.5784C51.1409 44.6518 53.0204 34.9568 52.7087 25.2075ZM9.16699 25.2075C9.17245 20.3469 11.1057 15.6869 14.5427 12.2499C17.9797 8.81293 22.6397 6.87964 27.5003 6.87418C31.4693 6.86081 35.3332 8.14878 38.5003 10.5408L42.6368 5.04085C38.2781 1.75089 32.9613 -0.020025 27.5003 -0.000822026C20.8171 0.00706239 14.4098 2.66547 9.68405 7.39124C4.95828 12.117 2.29988 18.5243 2.29199 25.2075V32.0825H9.16699V25.2075Z" fill="black"/>
</g>
<defs>
<clipPath id="clip0_33_267">
<rect width="55" height="55" fill="white"/>
</clipPath>
</defs>
</svg>
