<svg width="55" height="55" viewBox="0 0 55 55" fill="none" xmlns="http://www.w3.org/2000/svg">
<path d="M22.9167 4.58333C22.9167 3.36776 23.3996 2.20197 24.2591 1.34243C25.1186 0.482886 26.2844 0 27.5 0C28.7156 0 29.8814 0.482886 30.7409 1.34243C31.6004 2.20197 32.0833 3.36776 32.0833 4.58333C32.0833 5.79891 31.6004 6.9647 30.7409 7.82424C29.8814 8.68378 28.7156 9.16667 27.5 9.16667C26.2844 9.16667 25.1186 8.68378 24.2591 7.82424C23.3996 6.9647 22.9167 5.79891 22.9167 4.58333ZM48.691 30.1927C50.5474 32.2233 51.8352 34.7077 52.4242 37.3951C53.0133 40.0826 52.8828 42.8779 52.046 45.4987C51.6288 46.9292 50.8982 48.2487 49.9072 49.3614C48.9161 50.4741 47.6897 51.3521 46.3169 51.9315C44.9782 52.5036 43.5289 52.7706 42.0742 52.7131C40.6195 52.6556 39.1959 52.2751 37.9065 51.5992C35.4252 50.3042 33.0891 48.7486 30.9375 46.9585V49.3808C30.9375 50.2925 30.5753 51.1669 29.9307 51.8115C29.286 52.4562 28.4117 52.8183 27.5 52.8183C26.5883 52.8183 25.714 52.4562 25.0693 51.8115C24.4247 51.1669 24.0625 50.2925 24.0625 49.3808V47.0365C21.9432 48.7873 19.6467 50.3119 17.2104 51.5854C15.9215 52.2615 14.4982 52.6421 13.0438 52.6995C11.5895 52.757 10.1406 52.4899 8.80229 51.9177C7.43131 51.3399 6.20601 50.4643 5.21513 49.3545C4.22424 48.2447 3.49258 46.9285 3.07313 45.501C2.25155 42.8984 2.13363 40.1246 2.73136 37.4616C3.32909 34.7986 4.62115 32.3413 6.47625 30.3394C6.08896 30.0162 5.71083 29.6817 5.34646 29.3242C3.70112 27.752 2.38199 25.8708 1.46457 23.7883C0.547154 21.7057 0.0494678 19.4626 0 17.1875C0 3.00896 8.59146 2.29167 10.3125 2.29167C16.9377 2.29167 22.6256 8.80229 27.5 15.4825C32.379 8.80458 38.0623 2.29167 44.6875 2.29167C46.4108 2.29167 55 3.00896 55 17.1875C54.9512 19.4592 54.4553 21.6991 53.5407 23.7792C52.6261 25.8593 51.3107 27.7388 49.6696 29.3104C49.3602 29.6175 49.0256 29.9062 48.691 30.1927ZM24.0625 33.259C21.8579 33.9833 19.5539 34.3598 17.2333 34.375C15.7343 34.3732 14.2433 34.1564 12.8058 33.731C11.3223 34.8327 10.2208 36.3713 9.65613 38.1307C9.09142 39.8902 9.09175 41.7824 9.65708 43.5417C9.79133 43.9973 10.0256 44.4173 10.3427 44.7709C10.6599 45.1246 11.052 45.403 11.4904 45.5858C11.8908 45.7595 12.3248 45.8417 12.7609 45.8262C13.1971 45.8107 13.6242 45.6981 14.0113 45.4965C19.8733 42.4233 23.5171 38.4244 24.0579 35.9585L24.0625 33.259ZM24.0625 22.4881C23.8035 22.1306 23.5217 21.7342 23.2123 21.2987C20.8542 17.9712 14.5956 9.16667 10.3125 9.16667C8.195 9.16667 6.875 12.2375 6.875 17.1875C6.96923 19.9398 8.15102 22.5423 10.1613 24.4246C11.0604 25.3774 12.1413 26.1405 13.3402 26.6687C14.5391 27.1969 15.8317 27.4795 17.1417 27.5C19.5804 27.5981 21.9922 26.9593 24.0625 25.6667V22.4881ZM45.9433 40.5442C45.9168 39.2151 45.5842 37.91 44.9713 36.7304C44.3584 35.5507 43.4818 34.5283 42.4096 33.7425L42.3706 33.7081C40.8759 34.1526 39.326 34.384 37.7667 34.3956C35.4459 34.381 33.1417 34.0037 30.9375 33.2773C30.9375 33.2773 30.9375 35.6721 30.9375 35.8233C31.3385 38.2731 35.0946 42.3867 41.0919 45.5308C41.4806 45.7347 41.9103 45.8486 42.349 45.8641C42.7877 45.8796 43.2243 45.7962 43.6265 45.6202C44.0649 45.4373 44.457 45.1589 44.7741 44.8053C45.0913 44.4517 45.3256 44.0317 45.4598 43.576C45.7778 42.5928 45.9409 41.5661 45.9433 40.5327V40.5442ZM48.125 17.1875C47.9142 -0.229166 35.6744 15.5329 31.7992 21.2827C31.4829 21.7273 31.1942 22.1329 30.9306 22.495V25.6667C33 26.9614 35.4125 27.6004 37.8515 27.5C39.1639 27.4818 40.4591 27.1991 41.6597 26.6687C42.8603 26.1383 43.9416 25.3711 44.8388 24.4131C46.846 22.5335 48.0275 19.9357 48.125 17.1875Z" fill="black"/>
</svg>
