<svg width="56" height="56" viewBox="0 0 56 56" fill="none" xmlns="http://www.w3.org/2000/svg">
<path d="M52.3687 2.67675C50.6283 1.01477 48.3143 0.0874023 45.9077 0.0874023C43.5012 0.0874023 41.1872 1.01477 39.4467 2.67675L16.8573 25.2685C16.5935 25.2524 16.332 25.2295 16.066 25.2295C14.2602 25.2247 12.4713 25.5779 10.8029 26.2688C9.13442 26.9598 7.61953 27.9746 6.34581 29.2547C1.64168 33.9589 0.474251 48.2754 0.286178 51.0988L0.0292969 55.0162L3.94673 54.7593C6.76783 54.5713 21.0843 53.4061 25.7885 48.702C27.1483 47.3338 28.2033 45.6933 28.884 43.8884C29.5647 42.0835 29.8557 40.1549 29.738 38.2295L52.3687 15.5965C54.0804 13.8824 55.0418 11.559 55.0418 9.13662C55.0418 6.71423 54.0804 4.39087 52.3687 2.67675ZM20.9238 43.835C19.3687 45.3901 13.41 46.7891 7.53847 47.5047C8.25865 41.6332 9.65544 35.6745 11.2082 34.1194C11.8421 33.4644 12.6001 32.942 13.4379 32.5828C14.2757 32.2237 15.1766 32.0348 16.0882 32.0274C16.9997 32.0199 17.9036 32.1939 18.7472 32.5393C19.5908 32.8847 20.3572 33.3945 21.0018 34.0391C21.6464 34.6837 22.1562 35.4501 22.5016 36.2937C22.847 37.1373 23.021 38.0412 23.0135 38.9527C23.0061 39.8643 22.8172 40.7652 22.4581 41.603C22.0989 42.4408 21.5766 43.1988 20.9215 43.8327L20.9238 43.835ZM47.5041 10.7318L27.222 31.0139C26.7939 30.3887 26.3144 29.8002 25.7885 29.2547C25.25 28.7248 24.6702 28.2385 24.0545 27.8006L44.3114 7.54373C44.7415 7.1332 45.3132 6.90414 45.9077 6.90414C46.5023 6.90414 47.074 7.1332 47.5041 7.54373C47.9262 7.96682 48.1633 8.54009 48.1633 9.13776C48.1633 9.73543 47.9262 10.3087 47.5041 10.7318Z" fill="black"/>
</svg>
