<?xml version="1.0" standalone="no"?>
<!DOCTYPE svg PUBLIC "-//W3C//DTD SVG 20010904//EN"
 "http://www.w3.org/TR/2001/REC-SVG-20010904/DTD/svg10.dtd">
<svg version="1.0" xmlns="http://www.w3.org/2000/svg"
 width="2000.000000pt" height="2000.000000pt" viewBox="0 0 2000.000000 2000.000000"
 preserveAspectRatio="xMidYMid meet">

<g transform="translate(0.000000,2000.000000) scale(0.100000,-0.100000)"
fill="#000000" stroke="none">
<path d="M8903 14980 c-397 -53 -716 -338 -815 -726 l-23 -89 0 -1295 c0
-1427 -4 -1333 61 -1499 96 -242 303 -449 545 -545 167 -65 45 -61 1739 -61
1432 0 1540 1 1604 18 188 48 324 126 461 262 136 137 214 273 262 461 17 64
18 161 18 1364 l0 1295 -23 90 c-76 301 -299 555 -585 665 -175 68 -57 64
-1697 66 -817 1 -1513 -2 -1547 -6z m3087 -150 c334 -80 582 -357 629 -703 15
-108 15 -2390 0 -2507 -24 -191 -96 -337 -239 -480 -143 -143 -289 -215 -480
-239 -117 -15 -2863 -15 -2980 0 -191 24 -337 96 -480 239 -143 143 -215 289
-239 480 -15 117 -15 2399 0 2507 38 280 207 518 454 638 183 90 50 83 1750
84 1473 1 1502 0 1585 -19z"/>
<path d="M9435 14703 c-299 -41 -575 -246 -704 -525 -22 -45 -50 -123 -62
-173 l-24 -90 0 -780 c0 -859 -1 -843 64 -1010 88 -226 289 -429 512 -515 179
-69 111 -65 1184 -65 l970 0 90 23 c112 30 251 95 331 155 70 53 167 154 214
222 50 72 108 204 132 301 23 89 23 91 23 884 0 726 -2 801 -18 864 -36 143
-102 273 -197 392 -99 124 -293 248 -465 296 l-80 23 -970 1 c-533 1 -983 -1
-1000 -3z m2012 -81 c274 -72 491 -261 593 -516 61 -151 61 -154 58 -1012 -4
-871 0 -822 -78 -991 -119 -256 -351 -432 -634 -482 -39 -7 -382 -11 -982 -11
-1010 0 -995 -1 -1152 60 -214 82 -405 276 -487 493 -53 142 -55 178 -55 966
0 447 4 751 10 791 61 383 376 681 760 720 41 4 482 7 980 6 893 -2 906 -3
987 -24z"/>
<path d="M10259 14506 c-32 -18 -53 -66 -46 -103 3 -16 15 -53 26 -83 23 -62
27 -155 10 -228 -17 -74 -102 -239 -167 -328 -63 -86 -208 -236 -359 -372
-205 -184 -344 -410 -389 -633 -22 -108 -15 -282 15 -387 68 -236 223 -415
454 -522 213 -99 326 -102 381 -8 29 48 21 99 -28 169 -125 184 -151 315 -97
489 18 59 93 198 140 259 l18 24 22 -64 c42 -128 97 -202 265 -358 83 -76 111
-140 111 -251 0 -67 -5 -96 -24 -139 -49 -113 12 -221 124 -221 94 0 290 76
416 161 148 99 295 277 338 407 82 254 27 563 -162 895 -60 106 -93 137 -148
137 -57 0 -74 -12 -109 -78 -17 -31 -51 -79 -76 -107 l-45 -50 6 35 c45 256
45 430 0 605 -71 275 -257 534 -509 710 -74 52 -125 64 -167 41z m347 -508
c62 -92 111 -202 141 -317 21 -79 25 -120 26 -226 0 -140 -14 -220 -57 -341
-14 -39 -26 -86 -26 -103 0 -64 51 -125 116 -137 84 -16 256 59 318 138 l24
31 25 -44 c103 -176 144 -418 99 -580 -45 -161 -167 -301 -338 -386 -52 -25
-96 -45 -98 -42 -3 2 -1 29 2 59 24 186 -56 364 -215 481 -60 45 -129 132
-167 213 -24 51 -37 123 -52 300 -6 75 -33 116 -75 116 -40 0 -105 -48 -178
-130 -312 -354 -403 -641 -296 -937 12 -35 20 -63 18 -63 -16 0 -111 81 -166
140 -117 126 -169 269 -168 455 0 129 21 209 82 323 57 107 115 178 241 294
313 287 459 466 551 673 28 65 57 166 57 200 0 12 3 25 7 29 10 9 70 -59 129
-146z"/>
<path d="M3580 9955 c-382 -77 -682 -380 -756 -763 -21 -109 -21 -2554 0
-2664 76 -393 397 -707 786 -767 55 -9 471 -11 1590 -9 l1515 3 80 23 c318 93
566 329 663 632 48 152 47 109 47 1450 0 1341 1 1298 -47 1450 -97 303 -345
539 -663 632 l-80 23 -1535 2 c-1237 1 -1548 -1 -1600 -12z m3164 -138 c155
-46 254 -101 358 -196 116 -107 204 -251 245 -401 17 -61 18 -150 18 -1360 0
-1210 -1 -1299 -18 -1360 -67 -247 -256 -463 -485 -556 -157 -63 -29 -58
-1657 -62 -1065 -2 -1502 0 -1560 8 -157 23 -323 103 -446 217 -122 113 -222
303 -248 470 -15 101 -15 2465 0 2566 25 160 122 348 236 459 114 110 277 196
428 223 56 11 378 13 1570 12 1405 -2 1504 -3 1559 -20z"/>
<path d="M4175 9689 c-314 -46 -599 -273 -718 -570 -64 -160 -62 -126 -62
-1004 l0 -800 23 -90 c85 -325 338 -580 662 -667 l85 -23 995 0 995 0 89 28
c97 30 203 80 273 129 137 94 274 266 332 418 67 174 66 154 66 1005 0 713 -1
776 -18 850 -42 178 -120 325 -242 450 -126 130 -257 206 -435 256 l-85 23
-950 2 c-522 1 -977 -2 -1010 -7z m2025 -68 c316 -87 541 -308 636 -626 17
-55 18 -125 22 -835 4 -838 2 -863 -49 -1004 -113 -310 -380 -522 -711 -566
-56 -8 -378 -10 -1003 -8 -906 3 -921 4 -996 25 -213 60 -390 186 -504 358
-65 98 -96 168 -127 282 l-23 88 0 780 c0 712 2 786 18 849 69 271 226 470
462 587 107 53 189 77 300 89 39 4 480 7 980 6 l910 -2 85 -23z"/>
<path d="M4725 9040 c-81 -16 -170 -41 -179 -50 -8 -8 -21 -653 -21 -1020 0
-284 23 -783 36 -817 14 -35 35 -41 72 -21 12 6 38 11 58 9 21 -1 40 2 44 8 3
6 14 11 24 11 10 0 24 7 31 15 9 11 17 12 30 5 29 -16 50 -2 50 34 1 17 1 96
0 176 0 153 12 296 27 311 5 5 85 34 178 65 94 31 195 67 225 80 89 37 99 39
104 12 3 -13 7 -177 10 -364 4 -211 11 -354 17 -374 11 -29 14 -31 43 -25 17
3 58 10 91 14 34 4 72 14 85 21 14 8 37 13 51 11 48 -4 49 1 39 641 -6 326
-11 740 -11 920 -1 261 -4 330 -15 339 -9 7 -58 10 -144 7 -112 -2 -134 -6
-148 -22 -15 -16 -17 -58 -20 -395 l-3 -376 -112 -51 c-62 -29 -151 -64 -199
-78 -48 -15 -109 -36 -135 -47 -26 -11 -57 -18 -68 -15 -20 5 -21 9 -20 408 0
278 -4 428 -13 482 -7 44 -13 81 -15 82 -8 8 -79 11 -112 4z"/>
<path d="M8836 9955 c-276 -56 -512 -226 -651 -470 -52 -92 -100 -233 -114
-338 -15 -108 -15 -2465 0 -2574 13 -102 65 -252 120 -350 53 -94 233 -280
321 -331 94 -56 214 -103 311 -123 88 -18 157 -19 1587 -19 1430 0 1499 1
1587 19 97 20 217 67 311 123 88 51 268 237 321 331 55 98 107 248 120 350 15
108 15 2466 0 2574 -14 103 -65 252 -120 349 -51 90 -184 235 -274 300 -80 57
-210 118 -310 146 l-80 23 -1530 2 c-1263 1 -1542 -1 -1599 -12z m3087 -166
c164 -25 310 -102 432 -225 110 -111 167 -212 212 -375 17 -60 18 -152 18
-1329 0 -1177 -1 -1269 -18 -1329 -45 -163 -102 -264 -212 -375 -122 -123
-268 -200 -432 -225 -101 -16 -2925 -16 -3026 0 -164 25 -310 102 -432 225
-110 111 -167 212 -212 375 -17 60 -18 152 -18 1329 0 1177 1 1269 18 1329 45
163 102 264 212 375 118 119 253 192 410 221 94 18 2937 21 3048 4z"/>
<path d="M9460 9693 c-72 -8 -207 -46 -276 -78 -213 -97 -392 -287 -475 -500
-63 -163 -62 -141 -66 -940 -3 -482 -1 -761 6 -822 42 -357 278 -654 612 -771
150 -53 167 -53 1194 -50 945 3 950 4 1026 25 177 52 303 128 430 260 120 126
192 258 236 429 16 63 18 138 18 864 0 794 0 795 -23 884 -28 110 -94 251
-155 332 -53 70 -154 167 -222 214 -66 46 -197 105 -290 131 l-80 23 -950 2
c-522 0 -966 -1 -985 -3z m1973 -66 c156 -38 321 -129 428 -236 111 -111 201
-278 237 -438 15 -70 17 -154 17 -843 0 -705 -1 -771 -18 -840 -41 -169 -114
-304 -227 -420 -117 -120 -248 -197 -415 -243 -80 -22 -83 -22 -1045 -22
l-965 0 -90 23 c-95 25 -212 79 -291 133 -153 105 -285 294 -340 489 -17 60
-19 123 -22 845 -3 572 0 799 8 850 28 164 107 320 224 442 154 162 331 251
546 273 41 4 482 7 980 6 805 -2 913 -5 973 -19z"/>
<path d="M10717 9062 c-21 -15 -49 -47 -63 -72 -14 -24 -47 -74 -73 -110 -26
-36 -81 -123 -121 -195 -80 -142 -277 -445 -290 -445 -4 0 -9 109 -10 243 -6
485 -6 502 -19 525 -11 20 -18 23 -47 17 -25 -4 -39 -2 -50 10 -11 11 -20 13
-28 6 -8 -7 -35 -7 -80 0 -95 13 -103 7 -112 -88 -4 -43 -4 -240 -1 -438 5
-288 4 -393 -9 -520 -14 -143 -36 -681 -34 -825 0 -58 20 -87 50 -74 8 4 65 7
125 8 l110 1 18 38 c30 60 46 181 48 352 1 88 4 174 8 190 l6 30 30 -34 c17
-18 61 -63 100 -100 38 -36 170 -166 293 -288 124 -123 231 -223 239 -223 22
0 69 37 146 115 96 97 103 109 83 139 -20 31 -232 225 -302 277 -61 45 -292
256 -322 294 -19 24 -19 30 -8 63 28 78 113 216 277 450 15 20 51 82 81 137
30 55 92 156 136 223 45 68 82 127 82 131 0 5 -9 20 -20 34 -11 14 -20 29 -20
34 0 8 -47 33 -62 33 -5 0 -30 20 -56 45 -26 25 -51 45 -57 45 -5 -1 -27 -13
-48 -28z"/>
<path d="M14130 9963 c-362 -60 -659 -313 -768 -653 -48 -152 -47 -109 -47
-1450 0 -1341 -1 -1298 47 -1450 97 -304 344 -539 663 -632 l80 -23 1515 -3
c1119 -2 1535 0 1590 9 389 60 710 374 786 767 21 109 21 2555 0 2664 -64 331
-300 609 -616 723 -160 57 -92 55 -1723 54 -826 -1 -1513 -4 -1527 -6z m3053
-134 c167 -26 357 -126 470 -248 108 -118 185 -270 213 -421 20 -110 20 -2489
0 -2600 -29 -162 -128 -344 -245 -453 -123 -114 -289 -194 -446 -217 -58 -8
-495 -10 -1560 -8 -1628 4 -1500 -1 -1657 62 -184 75 -343 228 -432 417 -76
160 -71 53 -71 1499 0 1444 -5 1339 69 1497 119 251 334 418 601 468 94 18
2947 21 3058 4z"/>
<path d="M14680 9688 c-36 -5 -105 -22 -154 -39 -263 -88 -467 -283 -567 -543
-59 -153 -59 -156 -59 -990 0 -785 2 -820 42 -946 97 -302 339 -530 648 -612
l85 -23 985 0 c906 0 990 1 1053 18 353 90 616 363 688 712 17 83 19 148 19
850 0 702 -2 767 -19 850 -71 345 -323 607 -680 708 -75 21 -88 22 -1026 23
-554 1 -977 -2 -1015 -8z m1903 -48 c373 -36 685 -314 768 -685 11 -48 14
-221 14 -850 0 -789 0 -790 -23 -870 -90 -320 -325 -549 -649 -632 -63 -17
-146 -18 -1038 -18 l-970 0 -80 23 c-286 81 -509 285 -604 555 -51 145 -53
178 -49 1002 l3 760 28 88 c69 222 196 387 387 505 98 60 246 111 354 121 117
12 1743 12 1859 1z"/>
<path d="M15447 9069 c-32 -34 -102 -128 -155 -208 -53 -80 -129 -190 -170
-244 -41 -54 -92 -131 -115 -170 -22 -40 -53 -88 -69 -107 -15 -19 -28 -42
-28 -51 0 -9 -18 -43 -39 -77 -48 -74 -65 -126 -49 -156 12 -24 14 -26 100
-121 78 -86 143 -171 191 -250 20 -33 76 -107 124 -165 47 -58 118 -147 156
-197 38 -51 73 -93 77 -93 5 0 31 -31 59 -70 53 -72 83 -90 119 -71 12 6 54
11 94 11 127 1 188 45 144 105 -18 25 -17 27 93 180 47 66 116 171 152 235 66
114 143 240 187 308 35 53 55 109 48 136 -3 13 -24 44 -47 68 -34 36 -39 48
-34 73 24 121 -22 146 -235 126 -259 -23 -355 -41 -377 -69 -7 -9 -13 -37 -13
-63 0 -41 22 -184 36 -230 8 -28 55 -41 105 -30 64 15 149 14 149 -1 0 -7 -24
-56 -54 -108 -211 -375 -198 -357 -223 -320 -10 14 -56 70 -104 125 -47 55
-101 120 -120 145 -19 25 -75 92 -124 150 -136 158 -140 164 -124 203 7 18 32
59 54 92 23 33 58 92 79 130 43 79 131 205 192 274 22 25 69 87 104 136 34 50
78 107 96 127 18 20 40 50 48 67 15 29 15 30 -15 55 -17 14 -41 26 -54 26 -12
0 -28 7 -35 15 -15 18 -128 75 -149 75 -8 0 -42 -28 -74 -61z"/>
</g>
</svg>
