<svg width="86" height="86" viewBox="0 0 86 86" fill="none" xmlns="http://www.w3.org/2000/svg">
<g clip-path="url(#clip0_33_420)">
<path d="M82.8433 3.16056C81.5585 1.86027 79.9602 0.913292 78.2026 0.411127C76.445 -0.091037 74.5877 -0.131415 72.8099 0.293893L15.4766 12.3697C12.1748 12.8225 9.06506 14.1882 6.49749 16.3129C3.92992 18.4376 2.00653 21.2369 0.943939 24.3956C-0.118656 27.5544 -0.278256 30.947 0.483112 34.1916C1.24448 37.4361 2.89658 40.4036 5.25335 42.76L11.4095 48.9126C11.7427 49.2457 12.0069 49.6412 12.1871 50.0765C12.3673 50.5118 12.4598 50.9784 12.4594 51.4496V62.8016C12.4673 64.3977 12.8348 65.9715 13.5344 67.4061L13.5058 67.4312L13.5989 67.5244C14.6489 69.6354 16.3638 71.3428 18.4794 72.3834L18.5726 72.4766L18.5977 72.4479C20.0323 73.1476 21.6061 73.515 23.2023 73.5229H34.5543C35.504 73.5221 36.4152 73.8985 37.0877 74.5692L43.2403 80.7218C44.8905 82.3903 46.8546 83.7157 49.0194 84.6216C51.1842 85.5275 53.5069 85.996 55.8536 86.0001C57.8092 85.9976 59.7515 85.6782 61.6048 85.0541C64.7347 84.0263 67.5151 82.1444 69.6323 79.6207C71.7496 77.0969 73.1195 74.0317 73.5875 70.7709L85.6813 13.3121C86.1286 11.5192 86.1023 9.64073 85.6047 7.86104C85.1072 6.08135 84.1556 4.46156 82.8433 3.16056V3.16056ZM16.4835 43.8529L10.3238 37.7003C8.88942 36.3005 7.88413 34.5206 7.42587 32.5695C6.96761 30.6184 7.0754 28.5771 7.7366 26.6851C8.37764 24.7441 9.56268 23.0281 11.1508 21.7411C12.7389 20.4541 14.6632 19.6503 16.6949 19.4253L73.4585 7.47489L19.6189 61.3216V51.4496C19.6244 50.0389 19.35 48.6412 18.8119 47.3373C18.2737 46.0333 17.4823 44.849 16.4835 43.8529V43.8529ZM66.5463 69.5454C66.2711 71.5246 65.4498 73.3879 64.1745 74.9263C62.8991 76.4646 61.2202 77.617 59.3263 78.2542C57.4324 78.8913 55.3983 78.9879 53.4525 78.5333C51.5067 78.0786 49.7261 77.0905 48.3107 75.6801L42.1473 69.5167C41.1525 68.5164 39.9692 67.7233 38.6659 67.1833C37.3625 66.6433 35.965 66.367 34.5543 66.3706H24.6822L78.5289 12.5417L66.5463 69.5454Z" fill="black"/>
</g>
<defs>
<clipPath id="clip0_33_420">
<rect width="86" height="86" fill="white"/>
</clipPath>
</defs>
</svg>
