<svg width="86" height="86" viewBox="0 0 86 86" fill="none" xmlns="http://www.w3.org/2000/svg">
<g clip-path="url(#clip0_33_200)">
<path fill-rule="evenodd" clip-rule="evenodd" d="M0 43C0 19.2518 19.2518 0 43 0C66.7482 0 86 19.2518 86 43C86 66.7482 66.7482 86 43 86C19.2518 86 0 66.7482 0 43ZM45.2494 57.1113C45.2494 57.1113 46.0772 57.021 46.5011 56.574C46.8892 56.1644 46.8757 55.3915 46.8757 55.3915C46.8757 55.3915 46.8241 51.7824 48.5314 51.2494C50.214 50.7253 52.3742 54.7397 54.667 56.2834C56.3988 57.4505 57.7133 57.195 57.7133 57.195L63.8399 57.1113C63.8399 57.1113 67.0434 56.9175 65.5247 54.4446C65.3991 54.242 64.6385 52.6148 60.9708 49.2719C57.1278 45.773 57.6438 46.3388 62.2696 40.2854C65.0873 36.5991 66.2134 34.3486 65.8611 33.3865C65.527 32.4659 63.454 32.7103 63.454 32.7103L56.5581 32.7522C56.5581 32.7522 56.0466 32.6839 55.6674 32.9063C55.2973 33.1243 55.0572 33.633 55.0572 33.633C55.0572 33.633 53.967 36.4846 52.5111 38.9112C49.44 44.029 48.2129 44.2997 47.7103 43.9827C46.5416 43.2406 46.8331 41.0055 46.8331 39.4177C46.8331 34.4566 47.6005 32.3889 45.3414 31.8537C44.5921 31.6754 44.0402 31.5586 42.1221 31.5389C39.6612 31.5147 37.5793 31.5477 36.3993 32.1137C35.6142 32.4901 35.0084 33.3313 35.3786 33.3798C35.834 33.4391 36.8661 33.6529 37.4134 34.3839C38.12 35.3286 38.0953 37.4469 38.0953 37.4469C38.0953 37.4469 38.5015 43.2868 37.1464 44.0112C36.2176 44.5089 34.9434 43.4938 32.2043 38.8496C30.8023 36.4715 29.7435 33.8423 29.7435 33.8423C29.7435 33.8423 29.5392 33.3512 29.1735 33.0869C28.7317 32.7676 28.1147 32.6685 28.1147 32.6685L21.562 32.7103C21.562 32.7103 20.5771 32.7368 20.2159 33.1573C19.8952 33.5294 20.1912 34.3024 20.1912 34.3024C20.1912 34.3024 25.3218 46.0856 31.132 52.0246C36.4599 57.4681 42.508 57.1113 42.508 57.1113H45.2494Z" fill="black"/>
</g>
<defs>
<clipPath id="clip0_33_200">
<rect width="86" height="86" fill="white"/>
</clipPath>
</defs>
</svg>
