<svg width="55" height="56" viewBox="0 0 55 56" fill="none" xmlns="http://www.w3.org/2000/svg">
<g clip-path="url(#clip0_33_247)">
<path d="M52.5456 20.3766C47.0068 11.7831 37.5506 6.55652 27.3673 6.46045C17.1842 6.55652 7.72792 11.7831 2.18915 20.3766C-0.729718 24.6842 -0.729718 30.3493 2.18915 34.657C7.7248 43.2558 17.1816 48.4877 27.3674 48.587C37.5506 48.4909 47.0068 43.2643 52.5457 34.6708C55.4707 30.36 55.4707 24.6873 52.5456 20.3766ZM46.8781 30.7514C42.6494 37.4962 35.2962 41.6113 27.3673 41.6704C19.4385 41.6114 12.0854 37.4962 7.85656 30.7514C6.53823 28.8038 6.53823 26.2435 7.85656 24.296C12.0853 17.5512 19.4384 13.4361 27.3673 13.377C35.2961 13.436 42.6493 17.5512 46.8781 24.296C48.1964 26.2435 48.1964 28.8038 46.8781 30.7514Z" fill="white"/>
<path d="M27.367 36.7454C32.4318 36.7454 36.5377 32.6165 36.5377 27.5233C36.5377 22.4301 32.4318 18.3013 27.367 18.3013C22.3021 18.3013 18.1963 22.4301 18.1963 27.5233C18.1963 32.6165 22.3021 36.7454 27.367 36.7454Z" fill="white"/>
</g>
<defs>
<clipPath id="clip0_33_247">
<rect width="54.7394" height="55.0459" fill="white"/>
</clipPath>
</defs>
</svg>
