<svg width="86" height="86" viewBox="0 0 86 86" fill="none" xmlns="http://www.w3.org/2000/svg">
<g clip-path="url(#clip0_33_421)">
<path d="M82.4167 85.9974C81.4663 85.9974 80.5549 85.6199 79.8829 84.9479C79.2109 84.2759 78.8333 83.3644 78.8333 82.4141C78.8276 76.7137 76.5606 71.2484 72.5298 67.2176C68.499 63.1868 63.0337 60.9198 57.3333 60.9141H36.4425V66.5973C36.4422 68.0145 36.0217 69.3998 35.2342 70.5781C34.4467 71.7563 33.3275 72.6747 32.0182 73.217C30.7088 73.7593 29.2681 73.9012 27.8781 73.6248C26.4881 73.3484 25.2113 72.6661 24.209 71.6641L3.14257 50.5977C1.12726 48.5818 -0.00488281 45.848 -0.00488281 42.9975C-0.00488281 40.147 1.12726 37.4132 3.14257 35.3972L24.209 14.3308C25.2113 13.3289 26.4881 12.6466 27.8781 12.3702C29.2681 12.0938 30.7088 12.2357 32.0182 12.778C33.3275 13.3203 34.4467 14.2386 35.2342 15.4169C36.0217 16.5952 36.4422 17.9805 36.4425 19.3977V25.0808H53.75C62.3003 25.0903 70.4977 28.4911 76.5437 34.5371C82.5897 40.5831 85.9905 48.7805 86 57.3308V82.4141C86 83.3644 85.6225 84.2759 84.9505 84.9479C84.2785 85.6199 83.367 85.9974 82.4167 85.9974ZM29.2758 19.3977L8.20941 40.4641C7.53763 41.136 7.16025 42.0473 7.16025 42.9975C7.16025 43.9476 7.53763 44.8589 8.20941 45.5309L29.2758 66.5973V57.3308C29.2758 56.3804 29.6534 55.469 30.3254 54.797C30.9974 54.125 31.9088 53.7475 32.8592 53.7475H57.3333C61.4025 53.7462 65.4252 54.6131 69.1327 56.2901C72.8402 57.9672 76.1474 60.4158 78.8333 63.4726V57.3308C78.8257 50.6806 76.1806 44.305 71.4782 39.6026C66.7758 34.9002 60.4002 32.2551 53.75 32.2475H32.8592C31.9088 32.2475 30.9974 31.87 30.3254 31.198C29.6534 30.526 29.2758 29.6145 29.2758 28.6642V19.3977Z" fill="black"/>
</g>
<defs>
<clipPath id="clip0_33_421">
<rect width="86" height="86" fill="white"/>
</clipPath>
</defs>
</svg>
