<?xml version="1.0" standalone="no"?>
<!DOCTYPE svg PUBLIC "-//W3C//DTD SVG 20010904//EN"
 "http://www.w3.org/TR/2001/REC-SVG-20010904/DTD/svg10.dtd">
<svg version="1.0" xmlns="http://www.w3.org/2000/svg"
 width="1100.000000pt" height="880.000000pt" viewBox="0 0 1100.000000 880.000000"
 preserveAspectRatio="xMidYMid meet">

<g transform="translate(0.000000,880.000000) scale(0.100000,-0.100000)"
fill="#000000" stroke="none">
<path d="M5505 8370 c-19 -22 -111 -271 -195 -529 l-52 -163 -45 -26 c-113
-67 -122 -77 -183 -205 -84 -174 -149 -388 -150 -487 0 -52 -17 -120 -29 -120
-17 0 -169 -260 -241 -412 -74 -159 -67 -188 47 -188 139 0 269 63 380 184 34
38 68 66 75 63 22 -8 -150 -169 -218 -204 -69 -37 -167 -63 -235 -63 -43 0
-48 -3 -73 -41 -15 -22 -43 -50 -62 -61 -32 -19 -33 -21 -17 -33 15 -12 16
-14 3 -19 -27 -10 -74 -11 -142 -2 -73 9 -96 3 -77 -20 19 -23 7 -25 -77 -13
-79 11 -146 7 -241 -13 -57 -12 -66 -22 -30 -33 23 -8 20 -9 -43 -19 -19 -4
-42 -11 -50 -16 -13 -8 -12 -11 5 -24 35 -27 0 -36 -137 -36 -70 0 -150 -5
-177 -11 -43 -9 -50 -14 -48 -32 2 -21 -1 -21 -148 -22 -115 0 -158 -4 -185
-16 l-35 -16 33 -7 c18 -5 31 -13 29 -19 -3 -8 -40 -12 -120 -11 -107 1 -119
2 -141 23 l-24 23 -16 -25 c-9 -13 -14 -32 -10 -41 5 -14 -8 -16 -126 -16
-159 0 -283 -25 -221 -45 36 -11 23 -23 -37 -35 -75 -14 -221 -60 -228 -71 -3
-5 8 -14 25 -20 17 -6 31 -14 31 -17 0 -4 -32 -25 -71 -47 -90 -51 -175 -124
-249 -216 -70 -87 -79 -115 -28 -88 38 20 38 -6 0 -81 -42 -86 -166 -219 -266
-284 l-59 -39 22 -18 c11 -9 26 -19 32 -21 21 -7 -2 -49 -65 -116 -133 -143
-186 -242 -206 -383 -12 -84 -26 -114 -96 -200 -52 -64 -124 -175 -124 -191 0
-5 11 -6 25 -2 14 3 25 2 25 -3 0 -16 -68 -123 -110 -173 -46 -54 -47 -60 -21
-60 17 0 18 -4 11 -33 -4 -17 -11 -73 -14 -122 -3 -50 -17 -135 -31 -189 -25
-97 -26 -121 -3 -98 7 7 15 12 18 12 3 0 6 -73 5 -163 0 -138 -3 -167 -17
-190 -25 -36 -23 -39 20 -35 l37 3 -3 -90 c-1 -60 -7 -97 -18 -113 -19 -30
-12 -39 21 -24 25 12 25 11 25 -41 0 -28 -7 -76 -14 -104 -8 -29 -11 -55 -7
-57 4 -3 19 1 34 9 26 13 26 13 33 -32 4 -25 4 -70 0 -100 -6 -54 -6 -55 16
-50 13 2 31 8 41 12 13 6 17 2 17 -17 0 -13 -5 -29 -11 -35 -19 -19 10 -26 35
-9 27 17 36 12 36 -21 0 -26 27 -73 41 -73 5 0 9 12 10 28 1 36 22 103 33 105
5 1 15 -14 22 -33 l12 -35 12 33 12 33 19 -30 c10 -17 22 -31 27 -31 4 0 14
27 20 60 13 63 29 83 44 56 20 -35 28 -15 22 54 -4 44 -3 70 3 70 6 0 13 39
17 86 9 117 14 136 36 129 16 -5 18 6 25 110 7 113 7 115 31 115 22 0 24 4 24
44 0 39 18 144 27 155 2 3 10 -4 17 -15 8 -10 17 -17 20 -14 2 3 7 62 10 130
5 104 9 125 21 122 12 -2 15 9 15 57 0 124 76 123 116 -3 15 -47 16 -63 6
-107 -13 -56 -10 -68 11 -51 19 16 27 5 21 -32 -14 -88 -28 -147 -35 -152 -15
-9 -10 -24 6 -18 46 18 -21 -94 -140 -231 -90 -104 -107 -138 -106 -214 0 -46
6 -63 37 -107 19 -29 57 -70 82 -91 124 -99 452 -442 452 -471 0 -12 -27 -9
-150 13 -126 23 -192 27 -265 15 -112 -18 -172 -39 -222 -79 -27 -20 -64 -44
-84 -54 -40 -19 -148 -36 -222 -37 -97 0 -218 -84 -312 -216 l-46 -64 -460 0
-459 0 0 -215 0 -215 4326 0 c3864 0 4329 -1 4357 -15 60 -28 106 -75 138
-140 58 -118 48 -245 -27 -356 -60 -90 -61 -89 144 -89 165 0 268 10 393 39
160 36 410 163 698 355 277 185 383 237 581 291 134 35 140 41 140 124 0 84
-9 94 -111 122 -220 60 -340 120 -641 319 -332 221 -566 326 -803 362 -116 17
-423 17 -434 0 -5 -9 5 -34 29 -70 97 -148 91 -313 -16 -431 -21 -24 -55 -51
-77 -62 -38 -20 -59 -20 -1260 -19 l-1222 0 -42 30 c-69 50 -131 72 -220 77
-80 6 -82 6 -88 34 -19 85 -125 157 -260 179 -127 20 -187 66 -241 184 -54
118 -57 157 -50 686 7 566 21 966 35 1031 14 66 46 146 77 192 l27 41 19 -24
c19 -24 20 -24 34 -6 20 29 53 134 60 197 l6 55 45 -22 c46 -24 92 -20 84 8
-2 7 -6 41 -8 74 -6 68 6 87 36 60 10 -10 31 -18 47 -19 35 -3 42 18 43 136
l1 88 29 -22 c16 -12 39 -19 55 -17 26 3 26 4 30 98 2 58 10 113 21 140 18 48
35 94 55 148 14 36 41 42 77 17 32 -22 37 -7 41 117 l4 107 28 -21 c16 -11 33
-17 40 -13 23 14 40 75 40 145 0 68 1 70 25 70 34 0 39 18 21 81 -13 46 -21
112 -17 142 1 5 11 1 23 -7 12 -9 35 -16 50 -16 l28 0 -6 78 c-5 74 -16 141
-30 176 -5 13 1 16 33 16 21 0 49 7 61 16 l23 16 -46 44 c-47 46 -51 64 -11
64 44 0 48 23 10 53 -34 28 -69 86 -85 139 -7 27 -7 28 35 28 55 0 86 21 68
47 -23 33 -31 62 -35 118 -3 44 -10 62 -32 85 l-28 29 27 31 c32 38 32 48 4
59 -21 9 -78 57 -78 66 0 2 14 17 30 33 39 39 38 58 -3 76 -70 29 -159 170
-218 347 -28 85 -32 112 -42 289 -11 204 -1 439 24 587 10 56 10 80 1 112 -24
78 -97 138 -153 126 -36 -8 -45 -24 -52 -99 -6 -64 -59 -182 -89 -200 -44 -26
-57 40 -57 289 -1 99 -6 197 -11 217 -35 126 -251 248 -315 178z m-216 -846
c-10 -54 -47 -124 -66 -124 -18 0 -16 18 5 45 15 19 27 49 48 123 2 7 8 11 13
8 5 -3 5 -25 0 -52z m44 -593 c4 -19 23 -42 56 -67 62 -49 105 -112 90 -131
-16 -19 -27 -16 -41 11 -7 13 -41 46 -75 75 -47 39 -64 59 -69 85 -3 19 -3 39
1 45 12 21 33 11 38 -18z m-495 -328 c-64 -133 -84 -213 -55 -213 9 0 40 9 69
20 l53 20 -35 -29 c-53 -45 -123 -75 -155 -67 -25 6 -27 10 -22 45 6 48 45
130 109 228 44 68 86 123 94 123 1 0 -25 -57 -58 -127z m505 -666 c-1 -116
-20 -204 -63 -292 -34 -69 -84 -134 -96 -122 -5 4 -4 14 1 21 107 146 126 201
130 381 2 72 4 132 4 135 1 2 6 -1 13 -8 8 -8 12 -47 11 -115z m586 -136 c12
-17 35 -38 51 -48 41 -24 38 -33 -10 -33 l-40 0 34 -45 c38 -50 64 -142 48
-171 -8 -14 -11 -11 -17 17 -11 54 -52 129 -102 187 -37 43 -43 56 -32 63 8 5
20 9 27 9 16 0 16 0 -8 51 -11 24 -20 55 -20 69 0 20 4 16 24 -22 13 -25 33
-60 45 -77z m-2268 -287 c90 -17 117 -30 78 -38 -80 -18 -154 -26 -233 -26
-112 0 -207 -15 -255 -40 -30 -15 -33 -20 -18 -25 33 -14 16 -20 -53 -20 -41
0 -69 4 -67 10 6 18 145 82 203 93 32 7 90 12 131 12 58 0 73 3 73 15 0 8 -4
15 -10 15 -5 0 -10 5 -10 10 0 15 66 12 161 -6z m1024 -356 c-13 -97 -25 -344
-25 -508 1 -148 3 -172 14 -157 16 21 64 23 72 2 15 -38 -41 -295 -64 -295 -4
0 -7 47 -7 104 0 57 -3 107 -7 111 -4 4 -21 2 -39 -4 -18 -6 -34 -9 -36 -7 -2
2 1 23 6 47 12 52 15 359 3 359 -4 0 -13 -13 -19 -30 -32 -85 -45 27 -18 154
24 114 91 264 118 266 5 0 6 -19 2 -42z m805 -293 c0 -3 -14 -32 -30 -65 -48
-95 -64 -179 -50 -263 10 -57 10 -71 -1 -78 -9 -5 -20 -3 -29 7 -12 11 -15 39
-14 117 1 116 25 194 76 253 27 30 48 43 48 29z m-3002 -52 c-20 -21 -57 -81
-81 -133 -45 -93 -98 -170 -118 -170 -14 0 -4 31 43 129 41 85 100 160 153
192 43 27 44 24 3 -18z m1316 -322 c7 -10 -17 -21 -47 -21 -34 0 -94 -24 -213
-83 -98 -49 -211 -87 -257 -87 -20 0 -23 19 -4 24 103 28 177 57 245 97 84 50
164 77 234 78 20 1 39 -3 42 -8z m-844 -468 c0 -55 2 -63 19 -63 10 0 25 10
34 23 8 12 18 19 22 15 11 -11 -12 -222 -31 -288 -27 -94 -28 -94 44 -103 35
-4 114 -4 175 1 128 10 147 3 102 -35 l-30 -25 100 6 c55 4 124 9 153 12 52 6
74 -8 30 -20 -17 -4 -20 -8 -11 -17 11 -11 222 -15 288 -7 14 2 21 -4 23 -18
2 -12 12 -30 22 -39 18 -16 23 -15 107 21 82 36 96 39 206 42 l117 4 0 -23 c0
-13 5 -31 10 -39 8 -13 14 -13 42 -1 108 44 144 53 198 47 67 -8 70 -8 147 0
85 9 126 -1 162 -39 54 -54 64 -112 51 -278 -7 -80 -9 -179 -5 -227 l7 -85 22
28 c13 16 26 24 29 18 20 -32 29 -182 32 -493 1 -190 3 -354 4 -365 0 -10 36
-51 78 -91 86 -80 83 -71 68 -220 -8 -73 3 -111 51 -186 10 -15 15 -31 11 -35
-4 -4 -42 -11 -85 -15 l-77 -8 -35 39 c-19 22 -53 48 -75 59 -22 11 -49 29
-59 41 -22 25 -53 26 -193 10 l-96 -12 -31 37 c-41 48 -109 76 -209 86 -100
10 -283 -3 -423 -30 -186 -36 -396 -23 -597 35 -47 13 -112 28 -144 31 -32 4
-68 13 -81 20 -89 57 -287 350 -334 496 -25 78 -20 203 12 293 45 130 102 528
101 705 -1 94 7 155 38 325 21 116 37 214 34 218 -3 4 -11 3 -19 -4 -8 -6 -16
-10 -18 -8 -2 2 -6 76 -8 164 -5 147 -4 156 8 110 8 -27 14 -78 14 -112z
m-1464 -233 c-15 -22 -29 -54 -33 -71 -5 -25 -2 -31 16 -36 26 -7 27 -27 1
-63 -45 -63 -72 -140 -74 -208 -1 -52 -4 -67 -16 -67 -12 0 -15 13 -13 65 1
62 10 97 47 182 15 36 15 39 -5 59 l-20 20 25 42 c38 65 87 129 93 123 3 -3
-6 -24 -21 -46z m935 -1132 c43 -106 69 -225 76 -348 l6 -114 -69 54 c-107 84
-178 144 -191 160 -35 46 -20 122 37 187 23 26 53 67 67 91 14 24 30 41 37 39
6 -2 23 -33 37 -69z m6991 -992 c180 -39 396 -164 471 -273 57 -83 72 -131 72
-233 0 -82 -4 -103 -26 -150 -87 -184 -377 -355 -629 -372 l-45 -3 3 55 c12
197 115 380 250 445 23 11 42 22 42 25 0 3 -23 18 -51 35 -27 16 -70 50 -95
75 -79 78 -144 243 -144 362 0 70 -5 68 152 34z"/>
</g>
</svg>
