<svg width="86" height="86" viewBox="0 0 86 86" fill="none" xmlns="http://www.w3.org/2000/svg">
<path d="M77.4 43C77.4 52.1234 73.7757 60.8732 67.3245 67.3245C60.8732 73.7757 52.1234 77.4 43 77.4C33.8766 77.4 25.1268 73.7757 18.6755 67.3245C12.2243 60.8732 8.6 52.1234 8.6 43C8.6 33.8766 12.2243 25.1268 18.6755 18.6755C25.1268 12.2243 33.8766 8.6 43 8.6C46.268 8.6 49.45 9.073 52.46 9.933L59.211 3.182C54.223 1.118 48.762 0 43 0C37.3532 0 31.7616 1.11223 26.5446 3.27318C21.3276 5.43413 16.5873 8.60149 12.5944 12.5944C4.53034 20.6585 0 31.5957 0 43C0 54.4043 4.53034 65.3415 12.5944 73.4056C16.5873 77.3985 21.3276 80.5659 26.5446 82.7268C31.7616 84.8878 37.3532 86 43 86C54.4043 86 65.3415 81.4697 73.4056 73.4056C81.4697 65.3415 86 54.4043 86 43M25.413 34.744L19.35 40.85L38.7 60.2L81.7 17.2L75.637 11.094L38.7 48.031L25.413 34.744Z" fill="black"/>
</svg>
