<svg width="86" height="86" viewBox="0 0 86 86" fill="none" xmlns="http://www.w3.org/2000/svg">
<path d="M35.5598 49.9795C37.7923 49.9795 39.602 47.8875 39.602 45.3069C39.602 42.7263 37.7923 40.6343 35.5598 40.6343C33.3273 40.6343 31.5176 42.7263 31.5176 45.3069C31.5176 47.8875 33.3273 49.9795 35.5598 49.9795Z" fill="black"/>
<path d="M54.6577 45.3069C54.6577 47.8502 52.8416 49.9204 50.6155 49.9204C48.3893 49.9204 46.5732 47.8502 46.5732 45.3069C46.5732 42.7636 48.3893 40.6343 50.6155 40.6343C52.8416 40.6343 54.6577 42.7636 54.6577 45.3069Z" fill="black"/>
<path d="M43 0C19.2153 0 0 19.2228 0 43C0 66.7772 19.2153 86 43 86C66.7262 86 86 66.718 86 43C85.9414 19.2228 66.7262 0 43 0ZM53.545 61.5722L51.6703 59.0289C54.8924 57.9051 58.5245 55.8941 61.688 52.2861C57.9387 55.1252 52.2561 58.0825 43.1172 58.0825C33.9782 58.0825 28.2956 55.1252 24.5463 52.2861C27.7098 55.8941 31.342 57.9051 34.564 59.0289L32.6894 61.5722C32.6894 61.5722 23.609 61.5131 17.6335 54.5928C18.6294 37.6768 24.6049 29.0413 24.6049 29.0413C24.6049 29.0413 29.5845 25.0193 36.2044 24.4278L36.7902 25.5516C31.6349 26.7345 28.53 28.923 25.7766 31.4072C30.4632 28.9821 35.0913 26.7345 43.1757 26.7345C51.2602 26.7345 55.8883 28.9821 60.5749 31.4072C57.8215 28.9821 55.2439 26.9711 49.5613 25.5516L50.1471 24.4278C56.4155 24.901 61.7466 29.0413 61.7466 29.0413C61.7466 29.0413 67.6635 37.6768 68.718 54.5928C62.6253 61.5131 53.545 61.5722 53.545 61.5722Z" fill="black"/>
</svg>
