<svg width="55" height="55" viewBox="0 0 55 55" fill="none" xmlns="http://www.w3.org/2000/svg">
<g clip-path="url(#clip0_33_260)">
<path d="M38.438 6.64479C36.7261 5.19188 34.9317 3.66563 33.1053 2.00646C32.2733 1.24765 31.2848 0.680884 30.2097 0.346262C29.1345 0.0116398 27.999 -0.0826699 26.8834 0.0700029C25.7982 0.211931 24.7575 0.590244 23.8345 1.17825C22.9115 1.76626 22.1287 2.54964 21.5415 3.47313C19.3645 7.04938 17.723 10.9252 16.6694 14.9773C16.1691 14.312 15.5275 13.7659 14.7909 13.3782C14.0543 12.9906 13.2409 12.771 12.4093 12.7352C11.5776 12.6995 10.7484 12.8486 9.98124 13.1717C9.21408 13.4947 8.52807 13.9838 7.97254 14.6038C4.08788 18.5765 1.93694 23.9274 1.99129 29.4835C1.93965 35.1223 3.776 40.6162 7.20796 45.0906C10.6399 49.5649 15.4702 52.7624 20.9296 54.174C23.0696 54.7183 25.2688 54.9954 27.4769 54.999C30.8277 55.0035 34.1465 54.3473 37.2434 53.0678C40.3403 51.7884 43.1545 49.9108 45.5251 47.5427C47.8956 45.1745 49.7759 42.3621 51.0584 39.2664C52.3409 36.1708 53.0004 32.8527 52.9992 29.5019C52.9992 19.0198 46.2525 13.2906 38.438 6.64479ZM38.9375 44.196C38.282 44.7005 37.5929 45.1599 36.875 45.571C37.5326 44.1979 37.8771 42.6958 37.8834 41.1733C37.8834 36.7573 34.8057 31.6308 31.0084 27.1369C30.5727 26.627 30.0317 26.2177 29.4227 25.937C28.8136 25.6563 28.151 25.511 27.4804 25.511C26.8097 25.511 26.1471 25.6563 25.538 25.937C24.929 26.2177 24.388 26.627 23.9523 27.1369C18.5623 33.4573 15.1867 40.291 18.3332 45.8323C15.4395 44.2048 13.0353 41.8311 11.371 38.9585C9.70679 36.0858 8.84341 32.8194 8.87088 29.4996C8.79979 26.2482 9.89295 23.0784 11.9532 20.5621C12.2771 21.0938 12.6246 21.6079 12.9959 22.1044C13.609 22.9322 14.4513 23.5623 15.4186 23.9166C16.3859 24.2709 17.4358 24.334 18.4386 24.0981C19.4558 23.8713 20.386 23.3559 21.1177 22.6137C21.8493 21.8714 22.3514 20.9339 22.5636 19.9135C23.4105 15.4157 25.0319 11.099 27.3555 7.15584C27.4031 7.07754 27.4683 7.01134 27.5458 6.96243C27.6233 6.91353 27.7111 6.88325 27.8023 6.87396C27.9237 6.85814 28.0471 6.86901 28.1639 6.90582C28.2807 6.94263 28.388 7.0045 28.4784 7.08709C30.3667 8.80354 32.2207 10.3802 33.9898 11.879C41.298 18.0848 46.1242 22.1915 46.1242 29.4927C46.1336 32.3311 45.4903 35.1336 44.2442 37.6839C42.9981 40.2341 41.1825 42.4638 38.9375 44.2006V44.196Z" fill="white"/>
</g>
<defs>
<clipPath id="clip0_33_260">
<rect width="55" height="55" fill="white"/>
</clipPath>
</defs>
</svg>
