<svg width="86" height="86" viewBox="0 0 86 86" fill="none" xmlns="http://www.w3.org/2000/svg">
<path d="M43 0C48.6468 0 54.2384 1.11223 59.4554 3.27318C64.6724 5.43413 69.4127 8.60149 73.4056 12.5944C77.3985 16.5873 80.5659 21.3276 82.7268 26.5446C84.8878 31.7616 86 37.3532 86 43C86 54.4043 81.4697 65.3415 73.4056 73.4056C65.3415 81.4697 54.4043 86 43 86C23.22 86 6.665 72.756 1.548 54.739L18.017 61.533C19.135 67.08 24.08 71.294 29.971 71.294C36.679 71.294 42.14 65.833 42.14 59.125V58.566L56.76 48.117H57.104C66.048 48.117 73.315 40.85 73.315 31.906C73.315 22.962 66.048 15.695 57.104 15.695C48.16 15.695 40.85 22.962 40.85 31.906V32.121L30.659 46.999L29.971 46.956C27.434 46.956 25.069 47.73 23.134 49.063L0 39.56C1.849 17.415 20.339 0 43 0ZM27.004 65.231C30.444 66.65 34.4 65.059 35.819 61.619C37.238 58.179 35.604 54.266 32.25 52.847L26.746 50.568C28.853 49.794 31.218 49.751 33.454 50.697C35.733 51.6 37.496 53.363 38.399 55.642C39.345 57.878 39.345 60.372 38.399 62.608C36.55 67.252 31.089 69.488 26.445 67.553C24.295 66.65 22.661 65.016 21.758 63.081L27.004 65.231ZM67.94 31.906C67.94 37.883 63.081 42.742 57.104 42.742C51.17 42.742 46.311 37.883 46.311 31.906C46.3053 30.4871 46.5806 29.081 47.121 27.769C47.6614 26.4569 48.4562 25.2649 49.4595 24.2615C50.4629 23.2582 51.6549 22.4634 52.967 21.923C54.279 21.3826 55.6851 21.1073 57.104 21.113C63.081 21.113 67.94 25.972 67.94 31.906ZM49.02 31.906C49.02 36.378 52.632 40.033 57.147 40.033C61.619 40.033 65.231 36.378 65.231 31.906C65.231 27.434 61.619 23.779 57.147 23.779C52.632 23.779 49.02 27.434 49.02 31.906Z" fill="black"/>
</svg>
