<svg width="55" height="56" viewBox="0 0 55 56" fill="none" xmlns="http://www.w3.org/2000/svg">
<path d="M52.8779 8.8113C52.2497 8.55071 51.5584 8.48244 50.8915 8.61512C50.2245 8.74781 49.6119 9.07549 49.131 9.55672L40.6267 18.0705L29.9315 7.36635C29.6122 7.04665 29.2332 6.79304 28.816 6.62C28.3988 6.44697 27.9516 6.35791 27.5 6.35791C27.0484 6.35791 26.6012 6.44697 26.184 6.62C25.7668 6.79304 25.3878 7.04665 25.0685 7.36635L14.3733 18.0705L5.86896 9.55672C5.38821 9.07526 4.77557 8.74734 4.10855 8.61447C3.44154 8.48159 2.75013 8.54972 2.12182 8.81025C1.4935 9.07077 0.956523 9.51197 0.578827 10.078C0.201131 10.6441 -0.000307922 11.3095 3.53302e-07 11.9902V37.8434C0.00424511 41.1877 1.33354 44.3939 3.69636 46.7587C6.05918 49.1234 9.26264 50.4538 12.6042 50.4581H42.3958C45.7374 50.4538 48.9408 49.1234 51.3036 46.7587C53.6665 44.3939 54.9958 41.1877 55 37.8434V11.9902C55.0001 11.3097 54.7985 10.6444 54.4208 10.0786C54.043 9.51274 53.5061 9.07172 52.8779 8.8113ZM48.125 37.8434C48.125 39.3642 47.5214 40.8226 46.447 41.8979C45.3725 42.9733 43.9153 43.5774 42.3958 43.5774H12.6042C11.0847 43.5774 9.62746 42.9733 8.55303 41.8979C7.47861 40.8226 6.875 39.3642 6.875 37.8434V20.2952L11.9442 25.3686C12.5888 26.0136 13.463 26.3759 14.3745 26.3759C15.286 26.3759 16.1602 26.0136 16.8048 25.3686L27.5 14.6645L38.1952 25.3686C38.8398 26.0136 39.714 26.3759 40.6255 26.3759C41.537 26.3759 42.4112 26.0136 43.0558 25.3686L48.125 20.2952V37.8434Z" fill="black"/>
</svg>
