<svg width="55" height="56" viewBox="0 0 55 56" fill="none" xmlns="http://www.w3.org/2000/svg">
<g clip-path="url(#clip0_33_226)">
<path d="M53.2998 11.3467C50.7138 8.25542 47.4264 5.82822 43.712 4.26774C39.9977 2.70727 35.9642 2.0588 31.9484 2.3765C31.5134 1.9054 31.0197 1.49223 30.4794 1.14714C29.5419 0.566699 28.4903 0.195532 27.3963 0.0589736C26.3024 -0.077585 25.1919 0.0236803 24.1407 0.355858C19.5159 1.79402 15.2284 4.15085 11.5346 7.2854C7.84074 10.4199 4.81644 14.2678 2.64253 18.599C1.71478 20.4351 0.943572 22.3463 0.337114 24.3123C0.0139753 25.3555 -0.0810286 26.456 0.0585571 27.5392C0.198143 28.6224 0.569048 29.6628 1.14607 30.5898C1.49912 31.1412 1.92373 31.6433 2.40878 32.0829C2.10629 36.0835 2.76068 40.0987 4.31774 43.7958C5.87479 47.4928 8.28968 50.7653 11.3623 53.3421C12.2102 54.0506 13.2071 54.5582 14.2785 54.8271C15.35 55.096 16.4682 55.1191 17.5498 54.8949C18.6727 54.6703 19.7303 54.1941 20.6431 53.5022C21.5559 52.8102 22.3004 51.9204 22.8207 50.8994L30.1769 36.5072C31.6439 36.004 32.9766 35.1722 34.0736 34.0751C35.1705 32.9781 36.0026 31.6448 36.5065 30.177L50.8454 22.8169C51.8651 22.2959 52.7538 21.5507 53.4447 20.6371C54.1357 19.7235 54.6111 18.6653 54.8352 17.5416C55.0619 16.46 55.0415 15.3411 54.7756 14.2684C54.5098 13.1957 54.0053 12.197 53.2998 11.3467ZM6.90962 26.3398C8.31159 21.7796 10.8006 17.629 14.1622 14.2459C17.5237 10.8628 21.6569 8.34859 26.2055 6.92008C26.3121 6.8857 26.4248 6.87426 26.5362 6.88651C26.6475 6.89876 26.7551 6.93443 26.8517 6.99118C26.9335 7.03971 27.0033 7.10622 27.0557 7.18569C27.1081 7.26515 27.1418 7.35549 27.1542 7.44989L30.17 26.2572C30.2515 26.7926 30.2064 27.3397 30.0382 27.8544C29.87 28.3691 29.5834 28.8372 29.2016 29.2209C28.8198 29.6046 28.3533 29.8933 27.8397 30.0637C27.3261 30.2342 26.7797 30.2816 26.2444 30.2022L7.45274 27.2618C7.35806 27.247 7.26785 27.2113 7.1886 27.1573C7.10935 27.1034 7.04303 27.0326 6.99441 26.9499C6.93516 26.8612 6.89676 26.7603 6.88207 26.6546C6.86739 26.5489 6.8768 26.4413 6.90962 26.3398ZM16.7134 47.7641C16.6622 47.863 16.5895 47.9492 16.5007 48.0162C16.4118 48.0833 16.3091 48.1296 16.2 48.1517C16.1287 48.1721 16.0534 48.1748 15.9808 48.1596C15.9081 48.1444 15.8402 48.1118 15.7829 48.0646C13.7924 46.4002 12.1806 44.329 11.0557 41.9899C9.93079 39.6508 9.31882 37.0979 9.26086 34.5026L22.438 36.5669L16.7134 47.7641ZM47.7219 16.6953L36.5202 22.443L34.4004 9.21366C37.0073 9.26292 39.5732 9.87274 41.9238 11.0018C44.2745 12.1308 46.3551 13.7526 48.0244 15.7572C48.072 15.8148 48.1048 15.8831 48.1199 15.9563C48.1351 16.0294 48.1322 16.1052 48.1115 16.177C48.0895 16.287 48.043 16.3908 47.9756 16.4805C47.9082 16.5702 47.8215 16.6436 47.7219 16.6953Z" fill="black"/>
</g>
<defs>
<clipPath id="clip0_33_226">
<rect width="55" height="55.0459" fill="white"/>
</clipPath>
</defs>
</svg>
