<svg width="55" height="56" viewBox="0 0 55 56" fill="none" xmlns="http://www.w3.org/2000/svg">
<g clip-path="url(#clip0_33_240)">
<path d="M36.4923 22.9355C39.0116 22.9355 41.0539 20.8818 41.0539 18.3484C41.0539 15.815 39.0116 13.7612 36.4923 13.7612C33.973 13.7612 31.9307 15.815 31.9307 18.3484C31.9307 20.8818 33.973 22.9355 36.4923 22.9355Z" fill="black"/>
<path d="M20.5274 22.9355C23.0467 22.9355 25.089 20.8818 25.089 18.3484C25.089 15.815 23.0467 13.7612 20.5274 13.7612C18.0081 13.7612 15.9658 15.815 15.9658 18.3484C15.9658 20.8818 18.0081 22.9355 20.5274 22.9355Z" fill="black"/>
<path d="M18.2462 38.9917C20.7655 38.9917 22.8078 36.9379 22.8078 34.4045C22.8078 31.8711 20.7655 29.8174 18.2462 29.8174C15.7269 29.8174 13.6846 31.8711 13.6846 34.4045C13.6846 36.9379 15.7269 38.9917 18.2462 38.9917Z" fill="black"/>
<path d="M28.5103 0.0160509C24.8795 -0.108692 21.2604 0.494674 17.8639 1.79097C14.4675 3.08727 11.3616 5.05055 8.72745 7.56636C6.0933 10.0822 3.98356 13.1001 2.52125 16.4443C1.05894 19.7885 0.273318 23.392 0.210188 27.0447C0.147058 30.6973 0.807685 34.3261 2.15355 37.7193C3.49942 41.1126 5.50359 44.2025 8.04921 46.8088C10.5948 49.4152 13.631 51.4858 16.9806 52.9C20.3302 54.3142 23.9263 55.0437 27.5592 55.0459C28.3301 55.0459 29.085 54.9954 29.84 54.9335L33.008 54.6697L32.9099 43.6193C32.8993 42.3177 33.274 41.0424 33.9863 39.9556C34.6986 38.8688 35.7164 38.0197 36.91 37.5163C38.1037 37.0129 39.4192 36.878 40.6894 37.1287C41.9595 37.3794 43.1267 38.0045 44.0425 38.9243L44.2706 39.1537C44.9131 39.8016 45.7073 40.2765 46.5802 40.5346C47.4531 40.7927 48.3766 40.8258 49.2656 40.6307C50.1427 40.4444 50.9593 40.0395 51.6404 39.4532C52.3214 38.8669 52.8451 38.118 53.1635 37.2752C54.4207 33.9436 55.0181 30.397 54.922 26.8349C54.6648 19.8488 51.8071 13.2149 46.9153 8.24766C42.0235 3.28046 35.4546 0.342518 28.5103 0.0160509ZM47.4067 32.7821C45.4109 31.2891 43.0404 30.3857 40.5619 30.1735C38.0833 29.9614 35.5951 30.4488 33.377 31.5811C31.1589 32.7134 29.299 34.4456 28.0065 36.5828C26.714 38.7201 26.0401 41.1776 26.0607 43.6789L26.0995 48.1147C20.7905 47.7408 15.8335 45.308 12.2739 41.3296C8.71431 37.3512 6.83035 32.138 7.01939 26.7897C7.20843 21.4413 9.45569 16.3758 13.2872 12.6616C17.1187 8.94734 22.235 6.87467 27.5569 6.88073C27.785 6.88073 28.0381 6.88073 28.2822 6.88073C33.4883 7.12674 38.4125 9.33037 42.0792 13.055C45.7459 16.7796 47.8874 21.7534 48.0796 26.9908C48.1332 28.9434 47.9081 30.8937 47.4113 32.7821H47.4067Z" fill="black"/>
</g>
<defs>
<clipPath id="clip0_33_240">
<rect width="54.7393" height="55.0459" fill="white"/>
</clipPath>
</defs>
</svg>
